<?xml version="1.0" encoding="utf-8"?>
<!-- Generator: Adobe Illustrator 19.2.1, SVG Export Plug-In . SVG Version: 6.00 Build 0)  -->
<svg version="1.1" id="Layer_1" xmlns="http://www.w3.org/2000/svg" xmlns:xlink="http://www.w3.org/1999/xlink" x="0px" y="0px"
	 viewBox="0 0 320 320" style="enable-background:new 0 0 320 320;" xml:space="preserve">
<style type="text/css">
	.st0{fill:#FFFFFF;}
	.st1{fill:#F8D131;stroke:#000000;stroke-width:10;stroke-miterlimit:10;}
	.st2{fill:none;stroke:#000000;stroke-width:10;stroke-miterlimit:10;}
</style>
<circle class="st0" cx="171.4" cy="160" r="85"/>
<circle class="st1" cx="171.4" cy="159" r="75.7"/>
<path class="st2" d="M207,171c0,19.6-15.9,33.9-35.4,33.9s-35.4-14.3-35.4-33.9"/>
<path d="M211.8,131.4c-3.6,0-4.8,1.1-6.3,2.1c-1.4-0.7-4-1.7-5.6-1.7c-5.3,0-8.6,4.3-8.6,9.7c0,7.9,14.6,16.2,14.6,16.2
	s14.6-9.8,14.6-16.6C220.4,135.8,217.1,131.4,211.8,131.4z"/>
<path d="M144.7,131.4c-3.6,0-4.8,1.1-6.3,2.1c-1.4-0.7-4-1.7-5.6-1.7c-5.3,0-8.6,4.3-8.6,9.7c0,7.9,14.6,16.2,14.6,16.2
	s14.6-9.8,14.6-16.6C153.4,135.8,150.1,131.4,144.7,131.4z"/>
</svg>
