<?xml version="1.0" encoding="utf-8"?>
<!-- Generator: Adobe Illustrator 19.2.1, SVG Export Plug-In . SVG Version: 6.00 Build 0)  -->
<svg version="1.1" id="Layer_1" xmlns="http://www.w3.org/2000/svg" xmlns:xlink="http://www.w3.org/1999/xlink" x="0px" y="0px"
	 viewBox="0 0 320 320" style="enable-background:new 0 0 320 320;" xml:space="preserve">
<style type="text/css">
	.st0{fill:#FFFFFF;}
	.st1{fill:#F8D131;stroke:#000000;stroke-width:10;stroke-miterlimit:10;}
	.st2{fill:none;stroke:#000000;stroke-width:8;stroke-miterlimit:10;}
</style>
<circle class="st0" cx="160.6" cy="165" r="85"/>
<circle class="st1" cx="160.6" cy="164" r="75.7"/>
<path class="st2" d="M196.2,175.9c0,19.6-15.9,33.9-35.4,33.9s-35.4-14.3-35.4-33.9H196.2z"/>
<polygon points="131.4,130.9 136.2,140.7 147,142.3 139.2,149.9 141.1,160.6 131.4,155.5 121.8,160.6 123.6,149.9 115.8,142.3 
	126.6,140.7 "/>
<polygon points="191.4,130.9 196.2,140.7 207,142.3 199.2,149.9 201.1,160.6 191.4,155.5 181.8,160.6 183.6,149.9 175.8,142.3 
	186.6,140.7 "/>
</svg>
