<?xml version="1.0" encoding="utf-8"?>
<!-- Generator: Adobe Illustrator 19.2.1, SVG Export Plug-In . SVG Version: 6.00 Build 0)  -->
<svg version="1.1" id="Layer_1" xmlns="http://www.w3.org/2000/svg" xmlns:xlink="http://www.w3.org/1999/xlink" x="0px" y="0px"
	 viewBox="0 0 320 320" style="enable-background:new 0 0 320 320;" xml:space="preserve">
<style type="text/css">
	.st0{fill:none;stroke:#000000;stroke-width:10;stroke-miterlimit:10;}
	.st1{fill:#FFFFFF;}
	.st2{fill:#F8D131;stroke:#000000;stroke-width:10;stroke-miterlimit:10;}
	.st3{stroke:#000000;stroke-width:2;stroke-miterlimit:10;}
</style>
<circle class="st0" cx="155" cy="164.7" r="75.7"/>
<circle class="st1" cx="159" cy="166.2" r="85"/>
<circle class="st2" cx="159" cy="165.2" r="75.7"/>
<path class="st0" d="M123.8,161c0-19.6,15.9-33.9,35.4-33.9s35.4,14.3,35.4,33.9"/>
<polygon class="st3" points="141.5,195.6 133.7,187.8 140.8,180.7 136.6,176.5 129.5,183.6 122.4,176.5 118.2,180.7 125.3,187.8 
	117.5,195.6 121.7,199.8 129.5,192 137.3,199.8 "/>
<polygon class="st3" points="200.5,195.6 192.7,187.8 199.8,180.7 195.6,176.5 188.5,183.6 181.4,176.5 177.2,180.7 184.3,187.8 
	176.5,195.6 180.7,199.8 188.5,192 196.3,199.8 "/>
</svg>
