<?xml version="1.0" encoding="utf-8"?>
<!-- Generator: Adobe Illustrator 19.2.1, SVG Export Plug-In . SVG Version: 6.00 Build 0)  -->
<svg version="1.1" id="Layer_1" xmlns="http://www.w3.org/2000/svg" xmlns:xlink="http://www.w3.org/1999/xlink" x="0px" y="0px"
	 viewBox="0 0 320 320" style="enable-background:new 0 0 320 320;" xml:space="preserve">
<style type="text/css">
	.st0{fill:#FFFFFF;}
	.st1{fill:#F8D131;stroke:#000000;stroke-width:10;stroke-miterlimit:10;}
	.st2{fill:none;stroke:#000000;stroke-width:10;stroke-miterlimit:10;}
	.st3{stroke:#000000;stroke-width:4.4047;stroke-miterlimit:10;}
</style>
<circle class="st0" cx="160.5" cy="165.5" r="85"/>
<circle class="st1" cx="160.5" cy="164.5" r="75.7"/>
<path d="M199.9,136.9c-3.6,0-4.8,1.1-6.3,2.1c-1.4-0.7-4-1.7-5.6-1.7c-5.3,0-8.6,4.3-8.6,9.7c0,7.9,14.6,16.2,14.6,16.2
	s14.6-9.8,14.6-16.6C208.5,141.2,205.2,136.9,199.9,136.9z"/>
<path d="M134.8,136.9c-3.6,0-4.8,1.1-6.3,2.1c-1.4-0.7-4-1.7-5.6-1.7c-5.3,0-8.6,4.3-8.6,9.7c0,7.9,14.6,16.2,14.6,16.2
	s14.6-9.8,14.6-16.6C143.5,141.2,140.2,136.9,134.8,136.9z"/>
<path class="st2" d="M195.9,187.5c-19.4,19.9-51.2,20.2-71,0.8"/>
<path class="st3" d="M187.7,193.6l1,2.6c2.9,7.6-0.5,16.1-7.6,18.8l0,0c-7.1,2.7-15.3-1.3-18.2-8.9l-1-2.6"/>
</svg>
