<?xml version="1.0" encoding="utf-8"?>
<!-- Generator: Adobe Illustrator 19.2.1, SVG Export Plug-In . SVG Version: 6.00 Build 0)  -->
<svg version="1.1" id="Layer_1" xmlns="http://www.w3.org/2000/svg" xmlns:xlink="http://www.w3.org/1999/xlink" x="0px" y="0px"
	 viewBox="0 0 320 320" style="enable-background:new 0 0 320 320;" xml:space="preserve">
<style type="text/css">
	.st0{fill:none;stroke:#000000;stroke-width:10;stroke-miterlimit:10;}
	.st1{fill:#FFFFFF;}
	.st2{fill:#F8D131;stroke:#000000;stroke-width:10;stroke-miterlimit:10;}
	.st3{stroke:#000000;stroke-width:2;stroke-miterlimit:10;}
</style>
<circle class="st0" cx="164" cy="166.6" r="75.7"/>
<circle class="st1" cx="160" cy="166.2" r="85"/>
<circle class="st2" cx="160" cy="166.2" r="75.7"/>
<polygon class="st3" points="177.5,143.8 185.3,151.6 178.2,158.6 182.4,162.9 189.5,155.8 196.6,162.9 200.8,158.6 193.8,151.6 
	201.5,143.8 197.3,139.6 189.5,147.3 181.7,139.6 "/>
<polygon class="st3" points="118.5,143.8 126.3,151.6 119.2,158.6 123.4,162.9 130.5,155.8 137.6,162.9 141.8,158.6 134.8,151.6 
	142.5,143.8 138.3,139.6 130.5,147.3 122.7,139.6 "/>
<polyline class="st0" points="118.3,190.9 132.2,199.2 146,190.9 159.9,199.2 173.8,190.9 187.7,199.2 201.5,190.9 "/>
</svg>
