<svg id="Layer_1" data-name="Layer 1" xmlns="http://www.w3.org/2000/svg" viewBox="0 0 320 320"><title>love</title><path d="M160,321C71.81,321,0,249.22,0,161S71.81,1,160,1,320,72.8,320,161,248.23,321,160,321Zm0-300.13C82.74,20.86,19.87,83.73,19.87,161S82.74,301.16,160,301.16,300.17,238.29,300.17,161,237.3,20.86,160,20.86Z"/><circle cx="93.7" cy="133.04" r="17.93"/><circle cx="230.62" cy="133.04" r="17.93"/><path d="M162.72,262.49c-45,0-80.17-33.87-80.17-77.1h19.83c0,32.65,25.94,57.27,60.33,57.27s60.34-24.62,60.34-57.27h19.83C242.89,228.62,207.67,262.49,162.72,262.49Z"/><path d="M242.41,107c-7.16,0-9.49,2.18-12.49,4.12-2.68-1.42-7.83-3.29-11.08-3.29-10.61,0-17.11,8.6-17.11,19.2,0,15.71,28.9,32.12,28.9,32.12s28.9-19.38,28.9-33C259.52,115.56,253,107,242.41,107Z"/><path d="M105.48,107c-7.16,0-9.49,2.18-12.49,4.12-2.68-1.42-7.83-3.29-11.08-3.29-10.61,0-17.11,8.6-17.11,19.2,0,15.71,28.9,32.12,28.9,32.12s28.9-19.38,28.9-33C122.59,115.56,116.09,107,105.48,107Z"/></svg>