<svg id="Layer_1" data-name="Layer 1" xmlns="http://www.w3.org/2000/svg" viewBox="0 0 320 320"><title>scared</title><path d="M160.56,321.13C72,321.13,0,249.1,0,160.56S72,0,160.56,0,321.13,72,321.13,160.56,249.1,321.13,160.56,321.13Zm0-301.22C83,19.91,19.91,83,19.91,160.56S83,301.22,160.56,301.22s140.66-63.1,140.66-140.66S238.12,19.91,160.56,19.91Z"/><circle cx="94" cy="132.49" r="18"/><circle cx="231.42" cy="132.49" r="18"/><path d="M160.57,282.25a54.53,54.53,0,0,1-54.47-54.47V208A54.46,54.46,0,1,1,215,208v19.79A54.53,54.53,0,0,1,160.57,282.25Zm0-112.8A38.58,38.58,0,0,0,122,208v19.79a38.58,38.58,0,0,0,38.54,38.54h0a38.58,38.58,0,0,0,38.54-38.54V208A38.58,38.58,0,0,0,160.57,169.45Z"/></svg>