<svg id="Layer_1" data-name="Layer 1" xmlns="http://www.w3.org/2000/svg" viewBox="0 0 320 320"><title>smiley</title><path d="M215.19,310.39c-82.54,30-174.13-12.67-204.17-95.21S23.68,41.06,106.22,11s174.13,12.67,204.17,95.21S297.73,280.35,215.19,310.39ZM113,29.57C40.67,55.89,3.25,136.13,29.57,208.43s106.55,109.72,178.86,83.4S318.15,185.28,291.84,113,185.28,3.25,113,29.57Z"/><circle cx="88.27" cy="160.63" r="14.86" transform="matrix(0.94, -0.34, 0.34, 0.94, -49.61, 39.88)"/><circle cx="220.22" cy="112.6" r="14.86" transform="matrix(0.94, -0.34, 0.34, 0.94, -25.23, 82.11)"/><path d="M197.79,254.74C155.73,270,111.25,250.35,96.52,209.9l18.56-6.75c11.12,30.55,43.77,44.75,76,33s48.07-43.58,37-74.13l18.56-6.75C261.27,195.75,239.85,239.43,197.79,254.74Z"/></svg>